<?xml version="1.0" encoding="utf-8"?>
<!-- Generator: Adobe Illustrator 24.2.0, SVG Export Plug-In . SVG Version: 6.00 Build 0)  -->
<svg version="1.1" id="Layer_1" xmlns="http://www.w3.org/2000/svg" xmlns:xlink="http://www.w3.org/1999/xlink" x="0px" y="0px"
	 viewBox="0 0 132 120" style="enable-background:new 0 0 132 120;" xml:space="preserve">
<g>
	<path d="M36.04,35.06c3.93,1.52,6.67,3.89,6.13,8.78c-1.77,0-3.54,0-5.52,0c-0.09-0.34-0.24-0.78-0.33-1.24
		c-0.33-1.7-1.19-3.17-3.04-2.92c-1.18,0.16-2.68,1-3.25,1.98c-0.92,1.6-0.46,3.42,1.19,4.58c0.87,0.61,1.89,1,2.86,1.45
		c1.27,0.59,2.58,1.1,3.85,1.7c4.54,2.13,5.98,4.94,5.15,10c-0.67,4.07-3.49,6.62-8.14,6.89c-2.27,0.13-4.62-0.09-6.85-0.55
		c-2.81-0.57-3.95-3-4.98-5.38c0-1.32,0-2.64,0-3.97c1.96,0,3.93,0,5.89,0c0.19,1.17,0.09,2.23,0.55,2.91
		c0.67,0.99,1.62,2.12,2.68,2.46c1.76,0.57,3.53,0.03,4.3-1.92c0.78-1.96,0.5-3.9-1.41-5c-1.91-1.1-4.07-1.78-6.1-2.7
		c-4.16-1.9-5.65-4.49-5.46-9.02c0.18-4.33,2.77-6.63,6.51-8.06C32.06,35.06,34.05,35.06,36.04,35.06z"/>
	<path d="M59.81,45.51c-0.62,3.87-1.24,7.74-1.85,11.61c-0.37,2.36-0.61,4.76-1.15,7.08c-0.15,0.66-1.15,1.54-1.82,1.59
		c-5.17,0.42-5.16,0.37-6.11-4.84c-1.37-7.55-2.77-15.1-4.14-22.65c-0.14-0.78-0.23-1.58-0.35-2.36c5.51-0.94,5.67-0.84,6.42,4.1
		c0.73,4.81,1.43,9.63,2.15,14.45c0.09,0.61,0.28,1.21,0.82,1.79c1.1-6.78,2.19-13.57,3.27-20.24c0.31-0.17,0.45-0.31,0.6-0.32
		c5.28-0.43,5.29-0.43,6.12,4.76c0.86,5.36,1.7,10.72,3.01,16.07c1.05-6.87,2.09-13.75,3.16-20.76c1.89,0,3.68,0,5.84,0
		c-1.83,10.02-3.63,19.94-5.45,29.94c-2.32,0-4.45,0-6.86,0c-1.06-6.74-2.12-13.46-3.18-20.19C60.13,45.54,59.97,45.52,59.81,45.51z
		"/>
	<path d="M95.79,58.96c1.96,0,3.68,0,5.48,0c0.24,0.75,0.26,1.64,0.72,2.09c0.64,0.62,1.67,1.37,2.4,1.25
		c0.98-0.16,2.37-0.91,2.65-1.72c0.68-1.96,0.81-4.11,1.18-6.23c-2.18,0.61-3.92,1.4-5.72,1.54c-3.73,0.28-6.41-1.57-7.01-5.22
		c-0.45-2.78-0.46-5.79,0.1-8.55c0.85-4.21,4.07-6.16,8.96-6.18c4.64-0.02,7.52,1.79,8.6,5.95c1.59,6.18,1.61,12.48-0.11,18.61
		c-1.64,5.83-10.32,8.12-14.99,4.16C96.36,63.24,95.61,61.38,95.79,58.96z M107.79,45.85c-0.18-1.22-0.29-2.45-0.57-3.64
		c-0.37-1.58-1.54-2.59-3.07-2.15c-1.06,0.31-2.51,1.38-2.67,2.3c-0.37,2.22-0.34,4.61,0.08,6.82c0.17,0.89,1.79,2.08,2.76,2.1
		c0.97,0.01,2.23-1.1,2.84-2.05C107.73,48.34,107.6,47.02,107.79,45.85z"/>
	<path d="M83.83,44.77c-2.1,0-3.88,0-5.83,0c0-1.38,0-2.49,0-3.82c1.12-0.2,2.39-0.23,3.47-0.69c1.1-0.46,2.56-1.15,2.9-2.08
		c1.04-2.86,3.1-2.3,5.35-2.14c0,9.88,0,19.66,0,29.63c-1.87,0-3.72,0-5.89,0C83.83,58.8,83.83,51.91,83.83,44.77z"/>
	<path d="M80.51,82.26c0.51,1.24,1.05,2.46,1.54,3.71c0.48,1.22,0.92,2.46,1.97,3.71c0-2.4,0-4.8,0-7.2
		c0.28,0.01,0.56,0.01,0.83,0.02c0,3.96,0,7.92,0,11.88c-0.23,0.08-0.46,0.16-0.68,0.25c-0.98-2.6-1.96-5.19-2.95-7.79
		c-0.19,0.01-0.38,0.02-0.56,0.03c0,2.51,0,5.01,0,7.52c-0.26-0.01-0.52-0.02-0.78-0.02c0-3.97,0-7.94,0-11.92
		C80.09,82.37,80.3,82.31,80.51,82.26z"/>
	<path d="M66.35,81.7c1.69,0.85,3.41,1.22,4.31,2.29c1.19,1.41,0.77,3.21-0.35,4.8c-0.37,0.52-0.42,1.46-0.25,2.12
		c0.29,1.14,0.87,2.21,1.33,3.31c-0.28,0.14-0.56,0.28-0.83,0.43C69.7,93,68.85,91.36,68,89.73c-0.21,0.05-0.41,0.1-0.62,0.15
		c-0.12,1.48-0.25,2.95-0.38,4.53C65.87,93.41,65.54,87.6,66.35,81.7z M67.4,83.61c0,1.77,0,3.35,0,5.03
		c2.04-0.05,2.7-1.12,2.64-2.73C69.99,84.41,69.35,83.39,67.4,83.61z"/>
	<path d="M46.38,81.77c1.62,0.77,3.36,1.1,4.26,2.15c1.2,1.39,0.83,3.21-0.28,4.82c-0.37,0.53-0.47,1.46-0.3,2.11
		c0.29,1.15,0.87,2.23,1.34,3.34c-0.26,0.15-0.52,0.29-0.77,0.44c-0.88-1.63-1.75-3.26-2.63-4.9c-0.2,0.02-0.4,0.05-0.6,0.07
		c-0.16,1.53-0.31,3.06-0.47,4.6c-0.18,0-0.36,0.01-0.54,0.01C46.38,90.52,46.38,86.64,46.38,81.77z M47.26,88.65
		c2.42-0.03,2.97-1.32,2.78-3.08c-0.17-1.55-1.02-2.31-2.78-1.84C47.26,85.32,47.26,86.86,47.26,88.65z"/>
	<path d="M78.43,94.88c-1.44-1.55-2.35-2.54-3.27-3.53c-0.89,0.93-1.79,1.85-3.19,3.31c0.93-4.45,1.76-8.46,2.59-12.46
		c0.39,0.01,0.79,0.02,1.18,0.03C76.6,86.25,77.45,90.28,78.43,94.88z M73.98,90.24c1-0.11,1.6-0.17,2.34-0.25
		c-0.37-1.62-0.69-3.03-1.01-4.44c-0.13,0.01-0.25,0.01-0.38,0.02C74.63,86.99,74.35,88.41,73.98,90.24z"/>
	<path d="M55.77,82.19c0.85,4.03,1.7,8.06,2.55,12.09c-0.13,0.03-0.26,0.06-0.39,0.09c-0.88-1.01-1.59-2.58-2.68-2.92
		c-2.4-0.75-1.25,2.33-3.33,3.48c0.99-4.69,1.83-8.72,2.68-12.76C54.99,82.19,55.38,82.19,55.77,82.19z M56.33,90.06
		c-0.36-1.72-0.66-3.1-0.95-4.49c-0.15,0.01-0.29,0.02-0.44,0.03c-0.29,1.42-0.59,2.84-0.92,4.45
		C54.85,90.06,55.45,90.06,56.33,90.06z"/>
	<path d="M63.99,83.29c-2.77,0.21-3.61,1.03-3.94,3.88c-0.42,3.53,0.45,5.5,3.44,6.46c-0.35-2.01-0.64-3.67-0.96-5.45
		c0.12-0.01,0.82-0.04,1.82-0.09c0,1.55,0.07,2.94-0.03,4.31c-0.05,0.67-0.3,1.82-0.62,1.88c-0.89,0.16-2.05,0.15-2.78-0.3
		c-2.86-1.8-2.88-9.3-0.01-11.1c0.81-0.51,2.06-0.33,3.11-0.47C64,82.7,64,82.99,63.99,83.29z"/>
	<path d="M41.06,82.55c1.17,0,2.4,0,3.63,0c0.02,0.17,0.04,0.35,0.07,0.52c-0.87,0.2-1.74,0.41-2.73,0.64c0,1.27,0,2.56,0,3.95
		c0.8,0.22,1.59,0.44,2.38,0.65c0,0.14,0,0.28,0,0.42c-0.74,0.17-1.47,0.34-2.37,0.54c-0.09,1.68-0.18,3.41-0.28,5.15
		c-0.23-0.01-0.47-0.02-0.7-0.03C41.06,90.47,41.06,86.54,41.06,82.55z"/>
	<path d="M93.88,93.14c1.04,0.18,1.96,0.34,2.89,0.5c0,0.22,0,0.43,0,0.65c-1.26,0.08-2.52,0.17-3.97,0.26c0-4.18,0-8.08,0-12.01
		c1.4,0,2.63,0,3.87,0c0.02,0.18,0.05,0.36,0.07,0.54c-0.88,0.18-1.76,0.36-2.81,0.58c0,1.24,0,2.52,0,3.89
		c0.83,0.16,1.67,0.33,2.52,0.5c0.02,0.16,0.04,0.32,0.06,0.48c-0.86,0.22-1.71,0.44-2.62,0.67C93.88,90.5,93.88,91.79,93.88,93.14z
		"/>
	<path d="M91.18,93.68c-1.76,1.44-3.05,0.69-3.74-0.85c-1.3-2.9-1.31-5.94,0.01-8.85c0.79-1.74,2.02-1.97,3.63-1
		c-2.99,1.23-3.64,2.54-3.3,6.68C87.94,91.75,88.4,93.61,91.18,93.68z"/>
</g>
</svg>
