<?xml version="1.0" encoding="utf-8"?>
<!-- Generator: Adobe Illustrator 24.2.0, SVG Export Plug-In . SVG Version: 6.00 Build 0)  -->
<svg version="1.1" id="Layer_1" xmlns="http://www.w3.org/2000/svg" xmlns:xlink="http://www.w3.org/1999/xlink" x="0px" y="0px"
	 viewBox="0 0 352.17 239.48" style="enable-background:new 0 0 352.17 239.48;" xml:space="preserve">
<g>
	<path d="M7.34,88.58c7.48,0,14.95,0,22.48,0c0.29,3.39,0.33,6.64,0.9,9.8c1.44,7.96,7.03,11.57,16.09,10.65
		c6.87-0.69,11.34-6.02,11.58-13.29C58.61,89,55.84,84.1,49.89,81.2c-4.31-2.1-8.88-3.69-13.31-5.55c-3.52-1.47-7.12-2.8-10.5-4.54
		C12.82,64.29,8.03,54.37,9.06,38.85c0.63-9.44,3.86-17.64,11.86-23.39c4.35-3.12,9.29-4.79,14.52-5.58
		c7.05-1.07,14.09-0.86,21.05,0.8c13.98,3.33,21.66,12.84,21.98,27.26c0.03,1.48,0,2.97,0,4.59c-7.33,0-14.44,0-21.49,0
		c-0.42-2.69-0.62-5.34-1.28-7.88c-1.68-6.49-6.26-9.21-13.77-8.44c-5.92,0.61-9.67,4.58-10.14,10.72
		c-0.66,8.55,1.98,12.97,10.11,16.61c7.2,3.23,14.52,6.18,21.64,9.57c3.42,1.63,6.7,3.71,9.66,6.07c5.41,4.31,8.01,10.2,8.65,17.06
		c0.79,8.53,0.11,16.8-4.21,24.39c-4.4,7.74-11.53,11.77-19.94,13.7c-9.53,2.19-19.14,2.26-28.68,0.04
		c-12.15-2.82-19.38-10.96-21.17-23.52c-0.09-0.62-0.34-1.21-0.52-1.82C7.34,95.56,7.34,92.07,7.34,88.58z"/>
	<path d="M151.12,230.26c-6.6-2.44-9.45-7.73-10.53-14.19c-1.2-7.19-1.28-14.39,1.09-21.41c2.26-6.71,6.98-10.4,12.84-10.21
		c0.17,0.01,0.33,0,0.5,0.01c4.41,0.32,4.98,1.05,4.37,5.6c-0.08,0.01-0.18,0.05-0.25,0.02c-7.24-2.71-11.29-0.84-13.53,6.65
		c-2.19,7.33-2.06,14.77,0.11,22.1c1.41,4.78,4.43,7.36,7.97,7.5c1.69,0.06,2.59-0.31,2.54-2.32c-0.14-4.56-0.04-9.13-0.04-13.96
		c-1.91-0.09-3.7-0.17-5.65-0.26c0-1.17,0-2.28,0-3.56c3.19,0,6.3,0,9.64,0c0,7.26,0.12,14.39-0.16,21.51
		c-0.04,0.89-2.22,1.69-3.41,2.53C154.78,230.26,152.95,230.26,151.12,230.26z"/>
	<path d="M252.97,230.26c-5.36-1.97-7.94-6.18-9.14-11.45c-1.8-7.91-1.94-15.86,0.32-23.64c0.82-2.83,2.58-5.57,4.47-7.88
		c2.38-2.91,5.9-3.14,9.41-2.35c1.81,0.41,1.97,1.09,1.43,4.9c-0.55-0.18-1.06-0.35-1.58-0.53c-3.22-1.16-6.01-0.58-7.49,2.45
		c-1.5,3.06-2.59,6.48-3.05,9.85c-0.86,6.45-0.78,12.96,1.69,19.14c1.9,4.76,4.98,6.04,9.71,4.32c0.29-0.11,0.61-0.14,0.93-0.22
		c0.46,3.95,0.46,3.95-3.22,5.4C255.3,230.26,254.14,230.26,252.97,230.26z"/>
	<path d="M180.98,11.64c7.36,0,14.4,0,21.82,0c-6.82,37.41-13.6,74.61-20.39,111.92c-0.76,0.07-1.41,0.18-2.06,0.18
		c-7.07,0.01-14.14-0.03-21.22,0.04c-1.63,0.02-2.29-0.42-2.55-2.14c-3.97-26.1-8.01-52.19-12.52-78.33
		c-4.14,26.71-8.27,53.43-12.43,80.28c-8.49,0-16.85,0-25.45,0C99.4,86.4,92.62,49.19,85.79,11.72c7.35,0,14.51,0,21.82,0
		c4.06,27.11,8.12,54.2,12.18,81.29c0.19,0.03,0.39,0.05,0.58,0.08c4.32-27.08,8.64-54.16,12.98-81.38c0.71-0.07,1.35-0.2,1.99-0.2
		c5.91-0.02,11.81,0.03,17.72-0.04c1.47-0.02,2.23,0.31,2.49,1.93c3.48,22.23,7.03,44.45,10.56,66.67c0.7,4.42,1.41,8.84,2.61,13.32
		C172.8,66.2,176.87,39.01,180.98,11.64z"/>
	<path d="M276.66,97.77c7.03,0,14.07,0,21.33,0c0.14,1.38,0.22,2.77,0.44,4.15c0.64,4.09,2.17,7.59,6.67,8.66
		c4.7,1.13,9,0.35,12.2-3.54c2.98-3.62,3.91-8.07,4.13-12.58c0.25-5.35,0.06-10.72,0.06-16.21c-3.57,4.41-8.33,7.01-13.93,8.09
		c-5.14,1-10.27,0.95-15.31-0.48c-9.04-2.57-14.16-8.99-16.53-17.7c-3.08-11.31-2.96-22.73,0.4-33.94
		c3.8-12.71,13.72-20.3,27.1-21.5c6.18-0.55,12.3-0.53,18.3,1.14c11.24,3.12,17.3,11.12,20.33,21.88c2.3,8.15,2.84,16.51,2.93,24.91
		c0.13,12.13,0.3,24.27-1.96,36.26c-1.43,7.62-3.98,14.77-9.68,20.36c-6.39,6.26-14.49,8.16-23.05,8.58
		c-6.44,0.32-12.77-0.38-18.82-2.88C280.33,118.47,275.79,107.09,276.66,97.77z M296.02,48.82c0.53,3.95,0.79,8.54,1.84,12.94
		c1.4,5.89,4.99,8.41,10.73,8.43c5.86,0.01,9.51-2.6,10.97-8.53c2.11-8.61,2.05-17.32-0.18-25.89c-1.58-6.08-5.46-8.7-11.52-8.47
		c-5.58,0.21-9.22,3.28-10.37,9.28C296.75,40.39,296.54,44.3,296.02,48.82z"/>
	<path d="M254.9,123.6c-7.44,0-14.81,0-22.42,0c0-26.09,0-52.07,0-78.31c-7.42,0-14.62,0-22,0c0-5.09,0-9.93,0-14.59
		c4.09-0.51,8.09-0.7,11.94-1.57c8.14-1.83,13.53-6.73,15.62-15.01c0.17-0.68,1-1.7,1.55-1.71c5.05-0.13,10.11-0.08,15.31-0.08
		C254.9,49.55,254.9,86.5,254.9,123.6z"/>
	<path d="M216.77,185.01c4.14-0.35,4.15-0.35,5.47,3.24c3.24,8.79,6.48,17.58,9.73,26.37c0.22,0.58,0.45,1.16,1.2,1.66
		c0-10.39,0-20.77,0-31.29c1.52,0,2.73,0,4.09,0c0,14.87,0,29.7,0,44.5c-3.69,0.79-3.7,0.78-4.91-2.5
		c-3.41-9.26-6.82-18.52-10.23-27.77c-0.24-0.66-0.5-1.32-1.27-1.89c0,10.72,0,21.45,0,32.33c-1.5,0-2.7,0-4.08,0
		C216.77,214.83,216.77,200.01,216.77,185.01z"/>
	<path d="M104.95,211.25c2.56,6.13,5.08,12.15,7.61,18.2c-4.18,0.99-4.46,0.85-5.98-2.76c-1.98-4.74-3.98-9.48-5.98-14.25
		c-1.2,0-2.36,0-3.84,0c0,5.69,0,11.35,0,17.21c-1.6,0-2.88,0-4.31,0c0-14.84,0-29.66,0-44.47c9.41-1.17,15.24,0.2,18.15,6.57
		C113.83,198.82,111.62,206.51,104.95,211.25z M96.73,208.47c3.93,0.28,7.4-0.22,9.32-3.76c2.23-4.12,2.34-8.5-0.24-12.53
		c-2.08-3.25-5.45-3.62-9.08-3.17C96.73,195.5,96.73,201.85,96.73,208.47z"/>
	<path d="M170.75,229.75c-1.55,0-2.7,0-4.04,0c0-14.87,0-29.7,0-44.55c8.92-1.21,14.97,0.1,17.88,6.41
		c3.28,7.12,1.08,14.89-5.56,19.63c2.52,6.04,5.06,12.13,7.62,18.26c-4.42,0.86-4.49,0.83-6.07-2.97
		c-1.56-3.75-3.12-7.51-4.68-11.27c-1.33-3.2-1.33-3.2-5.15-2.6C170.75,218.24,170.75,223.86,170.75,229.75z M170.83,188.98
		c0,6.6,0,12.95,0,19.39c3.74,0.49,7.06-0.06,9.09-3.35c2.44-3.95,2.48-8.26,0.3-12.31C178.27,189.08,174.76,188.54,170.83,188.98z"
		/>
	<path d="M211.99,229.64c-4.16,0.45-4.15,0.45-4.89-3.23c-0.53-2.67-1.09-5.33-1.64-8.04c-3.47,0-6.77,0-10.27,0
		c-0.77,3.75-1.52,7.45-2.31,11.3c-1.33,0-2.62,0-4.22,0c3.15-15.05,6.28-30,9.43-45.07c1.14,0,2.11-0.21,2.93,0.06
		c0.76,0.25,1.82,0.9,1.96,1.54c3.07,14.17,6.04,28.37,9.02,42.57C212.04,229.01,211.99,229.27,211.99,229.64z M200.52,193.25
		c-0.14,0-0.28,0.01-0.41,0.01c-1.39,6.93-2.78,13.87-4.18,20.84c3.1,0,5.86,0,8.82,0C203.3,207,201.91,200.12,200.52,193.25z"/>
	<path d="M138.11,229.71c-1.5,0-2.8,0-4.34,0c-0.69-3.27-1.32-6.59-2.14-9.85c-0.16-0.62-1.05-1.47-1.65-1.5
		c-2.89-0.16-5.8-0.07-8.85-0.07c-0.58,2.87-1.13,5.63-1.7,8.38c-0.74,3.55-0.75,3.55-4.82,2.88c1.13-5.42,2.27-10.82,3.4-16.23
		c1.73-8.28,3.46-16.56,5.17-24.84c0.84-4.08,0.83-4.08,5.46-3.71C131.77,199.63,134.92,214.59,138.11,229.71z M121.83,214.04
		c3.14,0,5.93,0,8.82,0c-1.42-6.97-2.78-13.68-4.15-20.39c-0.19,0.01-0.37,0.01-0.56,0.02
		C124.58,200.44,123.21,207.21,121.83,214.04z"/>
	<path d="M279.72,205.13c0,1.54,0,2.66,0,4.02c-3.41,0-6.7,0-10.17,0c0,5.58,0,10.93,0,16.53c3.75,0,7.53,0,11.47,0
		c0,1.45,0,2.66,0,4.01c-5.28,0-10.47,0-15.82,0c0-14.9,0-29.71,0-44.68c5.18,0,10.29,0,15.57,0c0,1.19,0,2.37,0,3.81
		c-3.72,0-7.42,0-11.25,0c0,5.52,0,10.79,0,16.31C272.86,205.13,276.15,205.13,279.72,205.13z"/>
	<path d="M77.08,229.74c-1.67,0-2.89,0-4.27,0c0-14.94,0-29.77,0-44.74c5.01,0,9.95,0,15.03,0c0,1.24,0,2.38,0,3.82
		c-3.58,0-7.1,0-10.68,0c0,5.75,0,11.19,0,16.87c3.21,0,6.26,0,9.47,0c0,1.41,0,2.6,0,4.01c-3.17,0-6.21,0-9.55,0
		C77.08,216.44,77.08,222.96,77.08,229.74z"/>
</g>
</svg>
