<svg width="35" height="35" viewBox="0 0 35 35" fill="none" xmlns="http://www.w3.org/2000/svg">
<path d="M29.1667 16.0417C28.3613 16.0417 27.7083 16.6946 27.7083 17.5C27.7083 18.3055 28.3613 18.9584 29.1667 18.9584C29.9721 18.9584 30.625 18.3055 30.625 17.5C30.625 16.6946 29.9721 16.0417 29.1667 16.0417Z" fill="black"/>
<path d="M5.74592 18.9584H23.4209C24.178 18.9584 24.7917 18.3446 24.7917 17.5875V17.4125C24.7917 16.6554 24.178 16.0417 23.4209 16.0417H5.74592C4.98883 16.0417 4.37508 16.6554 4.37508 17.4125V17.5875C4.37508 18.3446 4.98883 18.9584 5.74592 18.9584Z" fill="black"/>
<path d="M5.74583 11.6666H29.2542C30.0113 11.6666 30.625 11.0529 30.625 10.2958V10.1208C30.625 9.3637 30.0113 8.74996 29.2542 8.74996H5.74583C4.98874 8.74996 4.375 9.3637 4.375 10.1208V10.2958C4.375 11.0529 4.98874 11.6666 5.74583 11.6666Z" fill="black"/>
<path d="M5.74583 26.25H29.2542C30.0113 26.25 30.625 25.6363 30.625 24.8792V24.7042C30.625 23.9471 30.0113 23.3333 29.2542 23.3333H5.74583C4.98874 23.3333 4.375 23.9471 4.375 24.7042V24.8792C4.375 25.6363 4.98874 26.25 5.74583 26.25Z" fill="black"/>
</svg>
