<svg width="35" height="35" viewBox="0 0 35 35" fill="none" xmlns="http://www.w3.org/2000/svg">
<g clip-path="url(#clip0_8_23)">
<path d="M27.7083 8.75004H24.7917C24.7917 4.72504 21.525 1.45837 17.5 1.45837C13.475 1.45837 10.2083 4.72504 10.2083 8.75004H7.29167C5.6875 8.75004 4.375 10.0625 4.375 11.6667V29.1667C4.375 30.7709 5.6875 32.0834 7.29167 32.0834H27.7083C29.3125 32.0834 30.625 30.7709 30.625 29.1667V11.6667C30.625 10.0625 29.3125 8.75004 27.7083 8.75004ZM17.5 4.37504C19.9208 4.37504 21.875 6.32921 21.875 8.75004H13.125C13.125 6.32921 15.0792 4.37504 17.5 4.37504ZM27.7083 29.1667H7.29167V11.6667H27.7083V29.1667ZM17.5 17.5C15.0792 17.5 13.125 15.5459 13.125 13.125H10.2083C10.2083 17.15 13.475 20.4167 17.5 20.4167C21.525 20.4167 24.7917 17.15 24.7917 13.125H21.875C21.875 15.5459 19.9208 17.5 17.5 17.5Z" fill="black"/>
</g>
<defs>
<clipPath id="clip0_8_23">
<rect width="35" height="35" fill="white"/>
</clipPath>
</defs>
</svg>
